<?xml version="1.0" encoding="UTF-8" standalone="no"?>
<svg
   xmlns:dc="http://purl.org/dc/elements/1.1/"
   xmlns:cc="http://creativecommons.org/ns#"
   xmlns:rdf="http://www.w3.org/1999/02/22-rdf-syntax-ns#"
   xmlns:svg="http://www.w3.org/2000/svg"
   xmlns="http://www.w3.org/2000/svg"
   xmlns:sodipodi="http://sodipodi.sourceforge.net/DTD/sodipodi-0.dtd"
   xmlns:inkscape="http://www.inkscape.org/namespaces/inkscape"
   height="32px"
   id="Layer_1"
   style="enable-background:new 0 0 32 32;"
   version="1.1"
   viewBox="0 0 32 32"
   width="32px"
   xml:space="preserve"
   sodipodi:docname="close.svg"
   inkscape:version="0.92.5 (2060ec1f9f, 2020-04-08)"><metadata
     id="metadata9"><rdf:RDF><cc:Work
         rdf:about=""><dc:format>image/svg+xml</dc:format><dc:type
           rdf:resource="http://purl.org/dc/dcmitype/StillImage" /><dc:title></dc:title></cc:Work></rdf:RDF></metadata><defs
     id="defs7" /><sodipodi:namedview
     pagecolor="#ffffff"
     bordercolor="#666666"
     borderopacity="1"
     objecttolerance="10"
     gridtolerance="10"
     guidetolerance="10"
     inkscape:pageopacity="0"
     inkscape:pageshadow="2"
     inkscape:window-width="1920"
     inkscape:window-height="1056"
     id="namedview5"
     showgrid="false"
     inkscape:zoom="13.234375"
     inkscape:cx="6.9474287"
     inkscape:cy="12.458109"
     inkscape:window-x="0"
     inkscape:window-y="0"
     inkscape:window-maximized="1"
     inkscape:current-layer="Layer_1" /><path
     d="M 23.071068,6.1005051 16,13.171573 8.9289322,6.1005051 c -0.7806459,-0.7806459 -2.0477813,-0.7806459 -2.8284271,0 -0.7806459,0.7806458 -0.7806459,2.0477812 0,2.8284271 L 13.171573,16 6.1005051,23.071068 c -0.7806459,0.780646 -0.7806459,2.047781 0,2.828427 0.7806458,0.780646 2.0477812,0.780646 2.8284271,0 L 16,18.828427 l 7.071068,7.071068 c 0.780646,0.780646 2.047781,0.780646 2.828427,0 0.780646,-0.780646 0.780646,-2.047781 0,-2.828427 L 18.828427,16 25.899495,8.9289322 c 0.780646,-0.7806459 0.780646,-2.0477813 0,-2.8284271 -0.780646,-0.7806459 -2.047781,-0.7806459 -2.828427,0 z"
     id="path2"
     inkscape:connector-curvature="0" /></svg>