<?xml version="1.0" encoding="iso-8859-1"?>
<!-- Generator: Adobe Illustrator 16.0.0, SVG Export Plug-In . SVG Version: 6.00 Build 0)  -->
<!DOCTYPE svg PUBLIC "-//W3C//DTD SVG 1.1//EN" "http://www.w3.org/Graphics/SVG/1.1/DTD/svg11.dtd">
<svg version="1.1" id="Capa_1" xmlns="http://www.w3.org/2000/svg" xmlns:xlink="http://www.w3.org/1999/xlink" x="0px" y="0px"
	 width="45.476px" height="45.475px" viewBox="0 0 45.476 45.475" style="enable-background:new 0 0 45.476 45.475;"
	 xml:space="preserve">
<g>
	<g>
		<path d="M38.816,6.66c-8.879-8.879-23.276-8.88-32.156,0c-8.879,8.88-8.879,23.276,0,32.156c8.88,8.879,23.276,8.88,32.156,0
			C47.694,29.936,47.694,15.54,38.816,6.66z M34.149,34.149c-6.304,6.304-16.521,6.303-22.822,0s-6.302-16.52,0-22.822
			c6.303-6.303,16.521-6.302,22.822,0C40.45,17.629,40.45,27.846,34.149,34.149z"/>
		<path d="M22.737,17.77c-1.512,0-3,1.225-3,2.735v12.131c0,1.511,1.488,2.735,3,2.735c1.511,0,3-1.226,3-2.735V20.505
			C25.737,18.995,24.248,17.77,22.737,17.77z"/>
		<path d="M22.72,10.103c-1.764,0-2.915,1.188-2.88,2.771c-0.035,1.512,1.116,2.735,2.844,2.735c1.802,0,2.952-1.224,2.952-2.735
			C25.6,11.291,24.485,10.103,22.72,10.103z"/>
	</g>
</g>
<g>
</g>
<g>
</g>
<g>
</g>
<g>
</g>
<g>
</g>
<g>
</g>
<g>
</g>
<g>
</g>
<g>
</g>
<g>
</g>
<g>
</g>
<g>
</g>
<g>
</g>
<g>
</g>
<g>
</g>
</svg>
