<?xml version="1.0" encoding="UTF-8" standalone="no"?>
<!-- Generator: Adobe Illustrator 16.0.0, SVG Export Plug-In . SVG Version: 6.00 Build 0)  -->
<!DOCTYPE svg PUBLIC "-//W3C//DTD SVG 1.1//EN" "http://www.w3.org/Graphics/SVG/1.1/DTD/svg11.dtd">
<svg xmlns:dc="http://purl.org/dc/elements/1.1/"
  xmlns:cc="http://creativecommons.org/ns#"
  xmlns:rdf="http://www.w3.org/1999/02/22-rdf-syntax-ns#"
  xmlns:svg="http://www.w3.org/2000/svg"
  xmlns="http://www.w3.org/2000/svg"
  xmlns:sodipodi="http://sodipodi.sourceforge.net/DTD/sodipodi-0.dtd"
  xmlns:inkscape="http://www.inkscape.org/namespaces/inkscape" version="1.1" id="Capa_1" x="0px" y="0px" width="43.329px" height="43.329px" viewBox="0 0 43.329 43.329" style="enable-background:new 0 0 43.329 43.329;" xml:space="preserve" sodipodi:docname="uploads.svg" inkscape:version="0.92.5 (2060ec1f9f, 2020-04-08)">
  <metadata id="metadata993">
    <rdf:RDF>
      <cc:Work rdf:about="">
        <dc:format>image/svg+xml</dc:format>
        <dc:type rdf:resource="http://purl.org/dc/dcmitype/StillImage" />
      </cc:Work>
    </rdf:RDF>
  </metadata>
  <defs id="defs991" />
  <sodipodi:namedview pagecolor="#ffffff" bordercolor="#666666" borderopacity="1" objecttolerance="10" gridtolerance="10" guidetolerance="10" inkscape:pageopacity="0" inkscape:pageshadow="2" inkscape:window-width="1920" inkscape:window-height="1056" id="namedview989" showgrid="false" inkscape:zoom="5.4466987" inkscape:cx="2.7539618" inkscape:cy="21.664499" inkscape:window-x="0" inkscape:window-y="0" inkscape:window-maximized="1" inkscape:current-layer="g956" />
  <g id="g956" inkscape:groupmode="layer">
    <path d="m 42.657,37.547 c 0,-1.75 -1.419,-3.171 -3.172,-3.171 H 3.842 c -1.751,0 -3.171,1.419 -3.171,3.171 v 2.611 c 0,1.751 1.42,3.171 3.171,3.171 h 35.645 c 1.751,0 3.171,-1.42 3.171,-3.171 z" id="path952" inkscape:connector-curvature="0" />
    <path d="m 24.63919,1.22925 c -1.645,-1.639 -4.305,-1.639 -5.951,0 l -14.0819999,14.014 c -0.91,0.906 -1.186,2.287 -0.695,3.474 0.491,1.187 1.646,1.976 2.932,1.976 H 12.72219 v 7.699 c 0,1.751 1.436,3.196 3.187,3.196 h 11.511 c 1.752,0 3.208,-1.444 3.208,-3.196 l 0,-7.698 h 5.858 c 1.284,0 2.441,-0.79 2.931,-1.976 0.49,-1.187 0.216,-2.561 -0.694,-3.466 z" id="path950" inkscape:connector-curvature="0" />

  </g>















</svg>